<svg xmlns="http://www.w3.org/2000/svg" width="365.104" height="57.978" viewBox="0 0 365.104 57.978"><defs><style>.a,.b{fill:#5f2201;}.a{fill-rule:evenodd;}</style></defs><g transform="translate(-230.096 -11.371)"><path class="a" d="M545.643,434.378a20.811,20.811,0,0,0-.355,2.988c-.052,1.5-.036.945-.045,1.043a14.326,14.326,0,0,0,1.518,4.175c1.228,2.131,1.514,3.2-.7,5.219s-4.461,1.4-4.993,2.462-.245,2.867-.45,4.41a27.951,27.951,0,0,0,.512,5.531,5.952,5.952,0,0,1,.2,1.323c.02.7.839,1.452,1.453,1.838s1.1.092,1.657.073a8.389,8.389,0,0,1,1.187.055,8.293,8.293,0,0,0,1.432-.2c.328-.018.737.147,1.146-.092s.327-.7.327-1.139a1.6,1.6,0,0,0-.491-1.047c-.266-.331-.2-.607-.7-.9s-1.371.074-1.371.074-.982-3.344-.45-4.63a2.948,2.948,0,0,1,2.005-1.58,1.837,1.837,0,0,0,.532,1.4c.634.7,6.517,5.338,7.243,5.788s1.217.046,1.586.083a7.278,7.278,0,0,0,1.882.211,9.381,9.381,0,0,1,1.852-.377,1.166,1.166,0,0,0,1.125-1.066,1.264,1.264,0,0,0-.512-.937c-.348-.331-.491-.239-1.371-.257a14.38,14.38,0,0,1-2.517,0c-.818-.165-4.46-3.308-4.542-3.528s-.45-.845-.123-1.213,4.051-1.433,6.589-2.756a13.668,13.668,0,0,0,3.969-3.087,23.053,23.053,0,0,0,4.092.147c1.96-.05,8.593-.565,12.588-.885a25.193,25.193,0,0,0-.8,3.2,7.457,7.457,0,0,0,1.473,5.219,45.944,45.944,0,0,1,4.256,5.77c.368.882.286,1.764.778,2.242s.491.037.777.441.573.294.982.184.655.11,1.474.11.982-2.095.327-3.271-3.6-4.7-4.256-6.615c-.29-.845.126-2.339.807-3.894,1.214,1.633,2.509,3.368,3.117,4.153,1.31,1.69,2.742,9.261,3.519,10.363s1.842.625,3.028.919a4.1,4.1,0,0,0,2.169-.037c.655-.074.819-.147,1.1-.184a1.249,1.249,0,0,0,.737-1.286c-.082-.661-.573-1.029-1.8-1.543a2.778,2.778,0,0,1-1.964-2.279,19.01,19.01,0,0,0-1.146-5.623c-.982-2.462-1.759-5.99-.532-8.747s4.542-4.924,6.056-6.836a11.719,11.719,0,0,0,1.76-9.04c-.778-3.234-2.373-7.607-1.923-10.217s2.742-5.807,2.763-6.376a3.47,3.47,0,0,0-.246-1.213,1.914,1.914,0,0,0-.1-.79,4,4,0,0,0-1-1.158,6.184,6.184,0,0,0-.348-.919c-.164-.294-.45-.349-1.125-.275s-1.31.551-2.414.661-2.619-.368-4.583-.147a10.821,10.821,0,0,0-4.01,1.58,14.548,14.548,0,0,0-1.965-2.315c-.491-.257-.982,1.25-.982,2.315a6.667,6.667,0,0,0,.778,2.5,4.3,4.3,0,0,1-2.251-.037c-1.064-.368-3.888-1.58-4.829-1.36s-.573,1.213.573,3.418,3.888,3.087,3.929,4.043.941,1.433,1.269,2.389a14.451,14.451,0,0,1,.123,3.638,65.974,65.974,0,0,0-8.88.073c-5.074.368-9.535,2.205-14.527,1.985s-10.6-.441-13.095.772c-6.421,3.119-19.451,2.309-17.965-9.7.328-2.646-.654-6.836-3.846-8.893a16.369,16.369,0,0,0-8.962-2.205,2.873,2.873,0,0,0-1.985.873.494.494,0,0,0,.276.762,2.274,2.274,0,0,0,.737.046s3.551,0,8.021,3.087,1.872,6.671,2.292,11.025C528.416,433.628,539.722,434.378,545.643,434.378Z" transform="translate(-286 -397.106)"/><path class="b" d="M43-20.6c0-1.65-.95-3.3-1.8-5.3-1.05-.8-2.25-1.65-3.2-1.65-1.1,0-4.45,1.7-7.1,3.35a1.167,1.167,0,0,1-.45,1.4c-.25-.4-.7-.7-1.05-.5-1.6.9-3.6,2.6-5.2,3.7a8.5,8.5,0,0,1-.4-4.35c-1.15-2.8-2.15-6.3-4.95-6.3-1.8,0-3.85,2.9-4.8,4.35-3.4,2.55-5.95,6.4-8.55,10.55C3.2-11.75-1-5.1-1-3.9-1-2.8,1.85.85,3.9.85a1.226,1.226,0,0,0,.8-.3,4.09,4.09,0,0,1-.05-2.8C5-3.2,5.4-4.05,5.95-3.9c-.35.7-.75,1.55-.25,1.75,2.15-3.9,5-9.15,7.1-12.55a28.256,28.256,0,0,1,5.25-6.4l.5,1c-1.2,2.8-2.45,5.85-3.2,8.3.5,1.65,1.25,4.1,2.55,4.1,1.05,0,1.65-.85,2.5.3l8.85-7.55c.15-1.55,3.7-2.7,5.15-3.6l.15.4c-1.8,3.95-5.9,11.3-5.9,13.35,0,1.8,2.2,5,4.1,5a1.541,1.541,0,0,0,.5-.05,1,1,0,0,0,.4-.2L34.5.7c.85-1.95,2.1-4.1,2.1-5.25a4.539,4.539,0,0,0-.75-1.75l.3-.3.35.45c.2-.65.05-1.55.75-1.55.5,0,.95-.7,1.2-1.6l.7-2.5-.3-.8L37.8-9.4l-.6.3,1.4-4.4a1.277,1.277,0,0,0,1.4-.65c-.45-.15-1.15-.25-1.15-.85h.8c.25-.55.75-2.9,1.85-2.55C42.4-17.25,43-19.15,43-20.6Zm-3.5,3.8c.15.25-.3.75-.85,1.15l.55-1.55ZM36.85-9.7H36.8a4.926,4.926,0,0,1-.1-.85,6.95,6.95,0,0,1,1.65-3.85h.05Zm2.45-7.85c.4-.9.45-1.55,1.15-1.55l-.6,1.55ZM36.15-9.7c.45.2.2,1.15-.2,1.45,0-.1-.05-.35-.05-.6A1.714,1.714,0,0,1,36.15-9.7ZM6.75-5.4,6.2-4.35l-.3-.3.55-.95ZM41-16a2.632,2.632,0,0,0-.95,1h.55ZM7.15-6.85c.35.25.1.45-.15.95l-.3-.25ZM78-23.65c-1.05-.1-1.2-1.2-1.25-2.4a8.24,8.24,0,0,0-.4-2.55,5.476,5.476,0,0,1-1.45-.8c-.45-.35-.8-.75-1.1-.75-.4,0-.7.1-.8.55a50.27,50.27,0,0,1-2,5.45c.8-.1,1,.35.55.6-.45.3-1.25.05-1.4.5-4.1,8.5-8.65,16.1-18.85,16.1.15-.4.35-.9.55-1.4-.45-.05-.65-.25-.65-.6a6.212,6.212,0,0,1,.9-2.25l.3.3c-.35.75-.3,1.15-.1,1.45.3-.7.7-1.65,1.05-2.4H53.3c-.3.2-.6.35-.9.2.25-.5.75-1.05,1.2-.85.25-.6.5-1.1.7-1.55.5-1.05-.75-1.95.45-3.7.2-.3.9.25.4.4A1.206,1.206,0,0,0,55.2-16c1.3-2.85,3.4-7.2,4.85-9.85V-27l-.7.5c-.4-1.05-1.95-5.1-3.05-5.15a2.469,2.469,0,0,0-1.55.7c-1.85,4.2-5.6,13.2-7.9,18.2A14.554,14.554,0,0,0,45.5-6.8,6.6,6.6,0,0,0,48.4-.95l.55-.25C49.65-.35,50.3,1,51.7,1c.35,0,.3-.15.25-.25,0-.15-.05-.25.3-.25s.35.1.35.25c.05.1.05.25.4.25C55.9,1,66.2-.5,73.2-13.4a1.074,1.074,0,0,0-.1-1.2,51.963,51.963,0,0,1-3.45,4.95l-.4-.5c3.1-3.8,3.2-5.15,4.15-5.1l.55-1.05c-.65-.05.15-1.65.8-2.85l.7.35c.6.05,1-.7.65-.9-1.2-.8.2-1.55,1.2-1.45ZM56.45-21c.5.5-.35,2.3-.7,2.8l-.65-.4c-.05-.05.05-.25.1-.35ZM55.05-.6a.9.9,0,0,1-.8-.3c-.5-.6,1.3-1,1.95.15A9.052,9.052,0,0,1,55.05-.6ZM69.3-9.2,67.9-7.65c-.5-.65.15-1.3.9-2.05ZM65.05-4.7a23.248,23.248,0,0,1-3.7,2.35l-.1-.5C63-3.8,63.85-4.75,65.05-4.7ZM60.7-2A11.833,11.833,0,0,1,57.8-.95c-.1-1.15,1.1-1,1.95-1.3C60.1-2.35,60.55-2.35,60.7-2Zm41.9-16.25-.3-.2c-.1-.05.1-.35.55-1.1a52.048,52.048,0,0,1,6.5-8.4l-1.05.15c-1.1.4-6.1,7.75-9.5,13.65a68.427,68.427,0,0,0-1.7-6.7c-.7-1.85-4.8-4.4-6.3-4.95-3.95,4.05-9.65,9.25-13.2,17.85a4.665,4.665,0,0,0-.55,3.05l.3,2.2c.6.3,1.4,3.65,2.85,3.65h1.4c2.25-3,4.5-9.5,7-14.2l-.15-.8a8.96,8.96,0,0,1,4.6-4.35l.25,1.95c.3,2.55-.85,4.05.35,7.55.35,1.1-.05,3.35.1,4.65C94.2-.9,94.5.35,97.7,1.2L98,.5l2.25,1.05c1.6-4.1,3.3-8.1,4.55-11.95.15-.45.9-.75.9-1.05.3-.7.2-1.35.45-1.8,1.2-1.9,2.25-2.85,2.35-4.65.3-.2.5.4.8,0a30.208,30.208,0,0,1,9.8-8.15l-1.4-1.5a4.59,4.59,0,0,1-1.6.5l-.1-.2,1-.7a6.925,6.925,0,0,0-4.05-.8,5.809,5.809,0,0,0-2.6.65A64.516,64.516,0,0,0,102.6-18.25ZM109.75-20l-1.05,1.6c-.5-.25.3-1.3.7-1.9C109.5-20.45,109.85-20.15,109.75-20Zm-1-5.85a4,4,0,0,1,.85-1.05l.4.2-.85,1.1C108.95-25.55,108.8-25.75,108.75-25.85Zm6.7-1.05c.1.75-.35.8-.85,1.15l-.1-.45ZM105.7-10.4c-.6-.25-.65.7-.7,1.4l.45.3Zm5.35-11.4-.9,1.3c-.05-.2-.15-.3-.45-.25l1-1.3C110.95-22.35,111.15-21.9,111.05-21.8Zm-20.1-2.5c-.35.35-.9,1.35-1.5.85l1.1-1.15Zm48.85.45c.35-2.05-1.05-3.35-1.75-5a7.67,7.67,0,0,0-2.55-.95c-1.75,0-11.3,5.65-12.6,8.8h-.35a5.822,5.822,0,0,0,.25,1.4h-.6c-.55,0-1.6,2.6-2.15,2.6-.7,0,.25-.75-.4-.75s-2.65,3.35-3.7,5.45c-.25.55.15,1.25-.2,1.8l-.5-.3A3.452,3.452,0,0,1,114.4-8v1.35a3.7,3.7,0,0,0,.35,1.7,30.768,30.768,0,0,0,3.2,4.8c1.6-.2,1.9,1.05,3.1,1.05.5,0,.95.8,1.5.8a18.9,18.9,0,0,0,3.8-.7c-.3-.35.05-.85.6-1.05,3.3-1.05,8.85-2.7,9.3-2.9l-.35-.5c-.45-.65.25-.85.9-.95l2.6-.4-.55-.35-1.2.15-.8-.2c-2.55.35-5.9,1.05-8.55,1.55a3.071,3.071,0,0,1-3.35.55c.55-1,3.95-1.6,6.35-2.1a1.666,1.666,0,0,0-1.5-.5c-3,.45-7.15,1.65-8.95,1.65-.55,0-.8-.35-.8-.95,0-2.45,4.95-8.15,5.85-9.1a4.32,4.32,0,0,0,.35-1.05,28.007,28.007,0,0,0,3.85-3.65l.3.5a30.119,30.119,0,0,1,3.15-2.8A19.4,19.4,0,0,1,139.8-23.85ZM133-1.1c-1.15.35-2.5.6-3.45,1a1.6,1.6,0,0,0,.7.15A6.23,6.23,0,0,0,133-1.05ZM128.3.85c.75,0,1.3-.3.7-.75l-1.65.55A2.167,2.167,0,0,0,128.3.85ZM120-16.55l-.4.7-.5-.3C119.35-16.6,119.6-16.7,120-16.55Zm2.35,5.65L120.8-8.6c-.25-.45.3-1.25.5-1.6l.6-.95Zm-2,3-.55,1.1-.3-.4.35-.7ZM138.4-3.7l-.65-.3-1.35.2.5.6Zm-4.8-1.9c1.5,0,3.2-.3,3.45-1.15-1.5.1-3.6.5-5.6.85A5.779,5.779,0,0,0,133.6-5.6Zm-9.35-8.7c.55-.65,1-1.15,1.5-1.15,0,.2,0,.4-1.05,1.45Zm.2.6-.4.5-.35-.3.3-.5Zm-5.15-1.65-.65,1.05-.45-.35.7-1.15Zm40.5,17.3c0-.65.7-1.15,1.05-1.75-.05-.5-.5-1.7-.05-2.4.4-.7.8-1.3,1-1.65.2-.3.65-.6.85-.5l.55.2c1.95-2.8,2.7-5.7,4.3-8.55a1.312,1.312,0,0,0-1.15.85l-.6,1.25c-.25.5-.65.25-.55.05.45-.95,1.05-2.1,1.4-2.7s1.2-1.3,1.85-1.1c.75-1.35,2.3-3.2,1.9-4.15a4.222,4.222,0,0,0,1.8-3.4c.8-.6.95-1.95.95-3.1,0-1.9-.65-4.45-2.4-4.45a1.329,1.329,0,0,0-1.15.6c-2.3,4.4-4.25,8.85-7.35,12.7a9.152,9.152,0,0,0-2.4-.55c-1.95,0-3.95.2-5.35,1.85l-1.05.3a2.73,2.73,0,0,1,1.55-2.35c1.05-2.2,2.85-4.65,3.35-6.25h.35A13.3,13.3,0,0,0,159-28.6c-1.45-1.35-1.25-2.9-3.9-2.9-.65,0-.5.25-.7.4-1.55,3.9-4.7,8.75-7.05,13.2-.9,1.7-1.2,4-2.1,5.65-.35.7-.75,1.05-1.05,1.8l-2.9,1.2.8.45c-.9.45-1.95.65-2.5,1.65a21.745,21.745,0,0,1,4.05.05c-.6,3.9-2.25,5.75.75,7.7l-.25.6a2.254,2.254,0,0,0,.55.15h.25a.184.184,0,0,0,.15-.05.175.175,0,0,0,.1-.05c.6.6.85,1.15,1.9,1.15a92.293,92.293,0,0,1,3.05-10.5c.3-.75.7-1.35,1.5-1.35a.855.855,0,0,1,.65.35c.45,0,4.75-.6,5.95-.6l.25.45c-1.5,2.75-3.7,7.3-3.7,10.3,0,2.2,2.95,4.15,4.3,4.95.75,0,1.5-2.75,2.25-4.15.55-1.05,1.45-2.55.8-2.9C161.05,1.25,160.15,2.7,159.8,1.95Zm2.9-5.4-.15-.15c-.1-.1-.25,0-.35.15l-.75,1.1.05.55c0,.15.15.15.25-.05Zm2.6-6.1L163.95-6.8c-.3.65-.75,1.5-1.35,1.55l2.05-4A.686.686,0,0,1,165.3-9.55ZM160.05-.2l-.85,1.7-.3-.4.5-1A.669.669,0,0,1,160.05-.2ZM155-3.95c.1,0,.8-.45,1.1-1.8l-.55-.2Zm-15.65-3.9c.1-.2-.05-.2-.15-.1-.45.4-1.1.9-1.1,1.05l.95-.2Zm10.5-1-.55,1.5-.45-.15C149.1-8.15,149.4-8.85,149.85-8.85Zm60-15.95c-.75-1.5-1.75-2.5-2.5-2.5-1.05,0-4.65,2.5-6.1,2.5h-.05c.35.35.1.7-.25.7-.15,0-.3,0-.65-.3a1.185,1.185,0,0,1-.85,1.15l-.2-.3c-3.9,1.65-7.35,3.45-11.35,5.35-.7-.85,3.7-6.25,3.7-7.65,0-1.5-1.05-6.05-3.9-5.7-4.35,7.45-9.85,16.35-13.35,25.35l.45.35A10.061,10.061,0,0,0,173.6-.6a1.6,1.6,0,0,1,.7.15,1.253,1.253,0,0,0,.2,1.2l.4-.6a2.732,2.732,0,0,1,.2,1.2,4.1,4.1,0,0,0,2.7,1,42.349,42.349,0,0,1,2.4-7.1c-1.1-.35-.7-1.65-.1-2.4h.55c-.35.7-.15.9.15,1.05A30.359,30.359,0,0,1,183-9.9c4.55,2.65,8.4,5.55,12.15,8.05l.1-.55c2.65,1.6,6.7,4.25,8.9,4.25a31.925,31.925,0,0,0,4.3-.25A3.657,3.657,0,0,0,206.4.85c-2.9,0-3.9-2.5-5.7-3.65a2.492,2.492,0,0,1-2.5-.8l.6-.5c-1.1-.7-1.65-.5-3-1.6.15-.15.25-.25.25-.4-.05-.5-1.35-.8-2-1.15l.35-.25c-1.25-1.15-3.75-3.15-5.1-4.7.5-.2,9-3.95,9.2-3.95.4,0,.35.45,1,.45.15,0,.7,0,.95-.8-.55.25-1.05.35-1.3.05a18.409,18.409,0,0,0,3.4-2.05l.75.55c.7-.95,1.5-1.6,1.9-1.6.7,0-.4.55.3.55.3,0,2.35-2.65,4.05-2.45v-2.6c-.3,0-.45.1-.75-.2Zm-20.4,12c-.35.2-.95.4-.95-.1l.75-.35Zm19.5-12.15-.75.35c-.15-.3.3-.8.5-.95Zm-17.6,10.7c.1.65-1,.95-1.5,1.2l-.05-.5Zm-9,4.15-1.4,2.35h-.65l1.05-1.7A1.149,1.149,0,0,1,182.35-10.1Zm-3,5.7-.7,1.5c-.35-.3.1-1.5.3-1.8ZM202.25-17l-.25-.4c-.75.4-1.2.8-1.2,1.05ZM206-1.1l-1.55-.5-.1.4A1.647,1.647,0,0,0,206-1.1Zm-2.75-2L200.5-4.45l-.3.4C201.65-3.15,203-2.65,203.25-3.1Zm.7,1.25-1.3-.45c-.1.2.45.8,1.2.85Zm-8.3-14.3a2.072,2.072,0,0,1-1.8,1.2,3.441,3.441,0,0,1-.65-.1Zm32.2-11.2a3.032,3.032,0,0,0-1.8-2.65v-1.2a6.237,6.237,0,0,0-1.55-.35,2.037,2.037,0,0,0-1.5.7c-3.6,6.6-12.9,18.9-12.9,27.9A7.846,7.846,0,0,0,212.85.8a1.607,1.607,0,0,1,.55-1.2V1.2a14.036,14.036,0,0,0,2.5,1.1c-.25-1,.1-3.15,1.1-5.5,1.45-3.5,2.3-6.9,4.05-9.85.1-.15.6-.75-.1-.5-1.8,2.05-2.65,5.95-3.8,8.55-.05.15-.4,1.2-.55,1.15-.65-.2,0-1,.15-1.4,1.1-2.85,1.95-6.3,3.9-9.1l1.95-1.1-.2-.6c2.3-1.25,3.1-4.75,4.45-6.65h.55A31.058,31.058,0,0,0,227.85-27.35ZM216.25-3l-.7,1.75c-.3.5-.45,0-.4-.15l.55-1.35C215.75-2.9,215.55-3.7,216.25-3ZM252.7-18.25l-.3-.2c-.1-.05.1-.35.55-1.1a52.047,52.047,0,0,1,6.5-8.4l-1.05.15c-1.1.4-6.1,7.75-9.5,13.65a68.429,68.429,0,0,0-1.7-6.7c-.7-1.85-4.8-4.4-6.3-4.95-3.95,4.05-9.65,9.25-13.2,17.85a4.665,4.665,0,0,0-.55,3.05l.3,2.2c.6.3,1.4,3.65,2.85,3.65h1.4c2.25-3,4.5-9.5,7-14.2l-.15-.8a8.96,8.96,0,0,1,4.6-4.35l.25,1.95c.3,2.55-.85,4.05.35,7.55.35,1.1-.05,3.35.1,4.65.45,3.35.75,4.6,3.95,5.45l.3-.7,2.25,1.05c1.6-4.1,3.3-8.1,4.55-11.95.15-.45.9-.75.9-1.05.3-.7.2-1.35.45-1.8,1.2-1.9,2.25-2.85,2.35-4.65.3-.2.5.4.8,0a30.209,30.209,0,0,1,9.8-8.15l-1.4-1.5a4.59,4.59,0,0,1-1.6.5l-.1-.2,1-.7a6.925,6.925,0,0,0-4.05-.8,5.809,5.809,0,0,0-2.6.65A64.515,64.515,0,0,0,252.7-18.25ZM259.85-20l-1.05,1.6c-.5-.25.3-1.3.7-1.9C259.6-20.45,259.95-20.15,259.85-20Zm-1-5.85a4,4,0,0,1,.85-1.05l.4.2-.85,1.1C259.05-25.55,258.9-25.75,258.85-25.85Zm6.7-1.05c.1.75-.35.8-.85,1.15l-.1-.45ZM255.8-10.4c-.6-.25-.65.7-.7,1.4l.45.3Zm5.35-11.4-.9,1.3c-.05-.2-.15-.3-.45-.25l1-1.3C261.05-22.35,261.25-21.9,261.15-21.8Zm-20.1-2.5c-.35.35-.9,1.35-1.5.85l1.1-1.15Z" transform="translate(326 63)"/></g></svg>